<?xml version="1.0" encoding="utf-8"?>
<svg viewBox="0 0 500 500" xmlns="http://www.w3.org/2000/svg">
  <circle style="stroke: rgb(0, 0, 0); fill: rgb(0, 165, 255); stroke-width: 21px;" cx="244.24" cy="256.336" r="121.245" transform="matrix(1.017756, 0, 0, 1.004439, -16.715681, -0.599676)"/>
  <path style="fill: rgb(0, 103, 255); stroke: rgb(0, 163, 255); stroke-width: 3px;" d="M 227.865 147.119 C 315.956 153.43 355.918 311.961 229.571 364.972 C 300.904 365.24 347.688 311.679 345.493 253.6 C 348.261 216.75 310.418 144.212 227.865 147.119 Z"/>
  <ellipse style="stroke: rgb(0, 0, 0); fill: rgb(245, 245, 245); stroke-width: 16px;" cx="341.617" cy="196.626" rx="21.345" ry="20.538"/>
  <rect x="372.626" y="198.434" width="9.515" height="2.88" style="fill: rgb(216, 216, 216); stroke: rgb(0, 0, 0); stroke-width: 16px;"/>
  <rect x="303.264" y="197.767" width="9.515" height="2.88" style="fill: rgb(216, 216, 216); stroke: rgb(0, 0, 0); stroke-width: 16px;"/>
  <line style="fill: rgb(216, 216, 216); stroke: rgb(0, 0, 0); stroke-width: 16px;" x1="111.837" y1="228.504" x2="171.746" y2="228.504"/>
  <line style="fill: rgb(216, 216, 216); stroke: rgb(0, 0, 0); stroke-width: 16px;" x1="119.259" y1="205.16" x2="160.082" y2="205.16"/>
  <line style="fill: rgb(216, 216, 216); stroke: rgb(0, 0, 0); stroke-width: 21px;" x1="215.606" y1="256.449" x2="66.189" y2="350.631"/>
  <line style="fill: rgb(216, 216, 216); stroke: rgb(0, 0, 0); stroke-width: 7px;" x1="76.187" y1="365.684" x2="225.169" y2="271.29"/>
  <rect x="394.531" y="160.936" width="53.976" height="80.486" style="stroke: rgb(0, 0, 0); fill: rgb(255, 166, 71); stroke-width: 9px;"/>
  <rect x="408.872" y="215.037" width="26.959" height="5.033" style="fill: rgb(216, 216, 216); stroke: rgb(0, 0, 0); stroke-width: 5px;"/>
  <path style="stroke: rgb(0, 0, 0); stroke-width: 3px;" d="M 406.747 181.226 L 406.747 187.968 C 419.15 195.569 427.837 178.03 437.309 187.968 L 437.309 181.587 C 427.312 174.283 418.015 188.511 406.747 181.226 Z"/>
  <rect x="408.479" y="198.236" width="26.959" height="5.033" style="fill: rgb(216, 216, 216); stroke: rgb(0, 0, 0); stroke-width: 5px;"/>
  <ellipse style="stroke: rgb(0, 0, 0); fill: rgb(255, 166, 71); stroke-width: 10px;" cx="92.572" cy="145.317" rx="15.963" ry="15.694"/>
  <rect x="237.274" y="159.972" width="53.976" height="80.486" style="stroke: rgb(0, 0, 0); fill: rgb(255, 166, 71); stroke-width: 9px;"/>
  <rect x="251.615" y="214.073" width="26.959" height="5.033" style="fill: rgb(216, 216, 216); stroke: rgb(0, 0, 0); stroke-width: 5px;"/>
  <path style="stroke: rgb(0, 0, 0); stroke-width: 3px;" d="M 249.49 180.262 L 249.49 187.004 C 261.893 194.605 270.58 177.066 280.052 187.004 L 280.052 180.623 C 270.055 173.319 260.758 187.547 249.49 180.262 Z"/>
  <rect x="251.222" y="197.272" width="26.959" height="5.033" style="fill: rgb(216, 216, 216); stroke: rgb(0, 0, 0); stroke-width: 5px;"/>
</svg>