<?xml version="1.0" encoding="utf-8"?>
<svg viewBox="0 0 500 500" xmlns="http://www.w3.org/2000/svg">
  <circle style="stroke-width: 11px; stroke: rgb(0, 0, 0); fill: rgb(0, 165, 255);" cx="244.24" cy="256.336" r="121.245"/>
  <path style="fill: rgb(0, 103, 255); stroke: rgb(0, 163, 255); stroke-width: 3px;" d="M 240.783 142.279 C 330.081 148.871 370.591 314.449 242.512 369.816 C 314.823 370.096 362.248 314.153 360.023 253.494 C 362.829 215.005 324.467 139.243 240.783 142.279 Z"/>
  <ellipse style="stroke: rgb(0, 0, 0); stroke-width: 7px; fill: rgb(245, 245, 245);" cx="345.385" cy="190.437" rx="9.505" ry="9.505"/>
  <rect x="358.633" y="189.284" width="9.515" height="2.88" style="fill: rgb(216, 216, 216); stroke: rgb(0, 0, 0); stroke-width: 4px;"/>
  <rect x="322.64" y="189.694" width="9.515" height="2.88" style="fill: rgb(216, 216, 216); stroke: rgb(0, 0, 0); stroke-width: 4px;"/>
  <line style="fill: rgb(216, 216, 216); stroke: rgb(0, 0, 0); stroke-width: 11px;" x1="126.369" y1="227.427" x2="186.278" y2="227.427"/>
  <line style="fill: rgb(216, 216, 216); stroke: rgb(0, 0, 0); stroke-width: 11px;" x1="133.791" y1="205.16" x2="174.614" y2="205.16"/>
  <line style="fill: rgb(216, 216, 216); stroke: rgb(0, 0, 0); stroke-width: 11px;" x1="255.972" y1="240.303" x2="60.268" y2="367.316"/>
  <line style="fill: rgb(216, 216, 216); stroke: rgb(0, 0, 0); stroke-width: 3px;" x1="56.811" y1="380.755" x2="261.229" y2="248.147"/>
  <rect x="278.598" y="168.468" width="38.368" height="40.659" style="stroke: rgb(0, 0, 0); stroke-width: 2px; fill: rgb(255, 166, 71);"/>
  <rect x="284.189" y="189.764" width="26.959" height="2.88" style="fill: rgb(216, 216, 216); stroke: rgb(0, 0, 0); stroke-width: 4px;"/>
  <rect x="284.328" y="201.579" width="26.959" height="2.88" style="fill: rgb(216, 216, 216); stroke: rgb(0, 0, 0); stroke-width: 4px;"/>
  <path style="stroke: rgb(0, 0, 0);" d="M 282.203 174.765 L 282.203 181.507 C 294.606 189.108 303.293 171.569 312.765 181.507 L 312.765 175.126 C 302.768 167.822 293.471 182.05 282.203 174.765 Z"/>
  <rect x="373.541" y="167.932" width="38.368" height="40.659" style="stroke: rgb(0, 0, 0); stroke-width: 2px; fill: rgb(255, 166, 71);"/>
  <rect x="379.132" y="189.228" width="26.959" height="2.88" style="fill: rgb(216, 216, 216); stroke: rgb(0, 0, 0); stroke-width: 4px;"/>
  <rect x="379.271" y="201.043" width="26.959" height="2.88" style="fill: rgb(216, 216, 216); stroke: rgb(0, 0, 0); stroke-width: 4px;"/>
  <path style="stroke: rgb(0, 0, 0);" d="M 377.146 174.229 L 377.146 180.971 C 389.549 188.572 398.236 171.033 407.708 180.971 L 407.708 174.59 C 397.711 167.286 388.414 181.514 377.146 174.229 Z"/>
  <ellipse style="stroke: rgb(0, 0, 0); fill: rgb(255, 166, 71); stroke-width: 3px;" cx="427.163" cy="130.034" rx="14.126" ry="13.99"/>
</svg>